<?xml version="1.0" encoding="UTF-8"?>
<svg id="Layer_2" data-name="Layer 2" xmlns="http://www.w3.org/2000/svg" xmlns:xlink="http://www.w3.org/1999/xlink" viewBox="0 0 127.43 127.44">
  <defs>
    <style>
      .cls-1 {
        fill: url(#linear-gradient);
      }
    </style>
    <linearGradient id="linear-gradient" x1="0" y1="63.72" x2="127.43" y2="63.72" gradientUnits="userSpaceOnUse">
      <stop offset="0" stop-color="#0097ff"/>
      <stop offset=".99" stop-color="#9fddff"/>
    </linearGradient>
  </defs>
  <g id="Layer_1-2" data-name="Layer 1">
    <path class="cls-1" d="M69.32,0C37.27,0,11.2,26.07,11.2,58.12c0,6.91,1.22,13.56,3.45,19.72,1.14,3.16,3.75,5.56,6.99,6.43,10.4,2.79,18.6,10.95,21.47,21.31.91,3.29,3.25,6.03,6.46,7.19,7.08,2.57,14.8,3.8,22.85,3.38,29.64-1.55,53.6-25.68,54.95-55.34C128.88,27.54,102.25,0,69.32,0ZM66.68,94.35c-17.89-1.27-32.37-15.77-33.6-33.67-1.46-21.19,15.37-38.89,36.24-38.89s36.32,16.29,36.32,36.33-17.74,37.73-38.96,36.22ZM29.93,119.58h.01s-5.42,5.43-5.42,5.43c-3.22,3.22-8.45,3.22-11.68,0l-10.42-10.42c-3.22-3.22-3.22-8.45,0-11.68l5.21-5.21s0,0,0,0,0,0,0,0l.21-.21h.01c6.12-5.88,15.84-5.82,21.88.21,6.03,6.03,6.09,15.76.2,21.88Z"/>
  </g>
</svg>